<?xml version="1.0" encoding="utf-8"?>
<!-- Generator: Adobe Illustrator 24.2.0, SVG Export Plug-In . SVG Version: 6.00 Build 0)  -->
<svg version="1.1" id="Layer_1" xmlns="http://www.w3.org/2000/svg" xmlns:xlink="http://www.w3.org/1999/xlink" x="0px" y="0px"
	 viewBox="0 0 134 149" style="enable-background:new 0 0 134 149;" xml:space="preserve">
<style type="text/css">
	.st0{fill:#60B900;}
</style>
<g>
	<path class="st0" d="M114.4,34.7l-10.9,13.5c8.4,9,13.5,21.1,13.5,34.3c0,27.9-22.6,50.5-50.5,50.5S16,110.4,16,82.5
		c0-20.6,12.3-38.3,30-46.1L67,109c12-41,27-71,57-94c-6-15-6-15-6-15c-8,3.6-16.9,11.4-24.8,20.3C85.1,16.9,76.3,15,67,15
		c-0.3,0-0.7,0-1,0l4.6,17.2c3.9,0.3,7.7,1.1,11.2,2.2C75.4,43.4,70.6,51.9,69,57l-7.4-24.8c0,0,0,0,0.1,0l-4.4-16.5
		C24.8,20.5,0,48.3,0,82c0,37,30,67,67,67s67-30,67-67C134,63.5,126.5,46.8,114.4,34.7z"/>
</g>
</svg>
