<?xml version="1.0" encoding="utf-8"?>
<!-- Generator: Adobe Illustrator 24.2.0, SVG Export Plug-In . SVG Version: 6.00 Build 0)  -->
<svg version="1.1" id="Layer_1" xmlns="http://www.w3.org/2000/svg" xmlns:xlink="http://www.w3.org/1999/xlink" x="0px" y="0px"
	 viewBox="0 0 45.6 56.7" style="enable-background:new 0 0 45.6 56.7;" xml:space="preserve">
<style type="text/css">
	.st0{fill:#0F1031;}
</style>
<path id="Fill-1" class="st0" d="M25,36.9c-1.8,0.7-3.6,1.2-4.8,1.1c-1.6-0.1-2.3-0.8-2.3-1.1c0-0.2,0.6-0.8,2.4-0.9
	c0.3,0,0.6,0,0.9,0C22.5,36,23.9,36.2,25,36.9 M28.4,53.2c-6.8,1.9-13.9,0.1-18.2-4.4c-3-3.2-4.1-7.2-2.8-11
	c2.5-7.6,14.7-12.2,22.5-12.2c0.1,0,0.2,0,0.2,0c2.9,0,4.9,0.7,5.2,1.8c0.2,0.6-0.3,1.7-1.2,2.9c-1.6,2.1-4.1,4-6.6,5.4
	c-1.6-1.8-4.2-2.6-7.5-2.3c-3.7,0.3-4.9,2-4.9,3.6c0,1.7,1.7,3.5,4.8,3.7c1.9,0.1,4.2-0.5,6.5-1.5c0.3,1.3,0.2,3-0.3,5.1
	C26,45,26.4,45.8,27.1,46c0.7,0.2,1.4-0.2,1.6-0.9c0.7-2.8,0.8-5.1,0.2-7c3-1.7,5.7-3.9,7.4-6c1.6-2,2.1-3.8,1.6-5.3
	c-0.3-1.1-1.1-2-2.3-2.6c0.1-10.1,1.9-17,3.5-17h0c0.2,0,0.6,0.1,0.9,0.4c1.3,1.3,2.9,5.6,2.9,18.5C42.9,38.7,41.8,49.5,28.4,53.2
	 M15.6,23.5c0,0,0-0.1,0-0.1c0,0,0-0.1,0-0.1c-0.2-2.7,0.1-4.9,1-6.1c0.4-0.6,0.9-0.9,1.6-1c1-0.1,1.8,0.1,2.5,0.8
	c1.3,1.2,2.1,4,2,6.9c-2.2,0.5-4.5,1.3-6.7,2.3C15.8,25.3,15.7,24.4,15.6,23.5 M27.2,18.9c0.5-0.5,1.1-0.8,1.9-0.8
	c1.3,0,1.8,0.4,2.1,0.7c0.7,0.8,1.1,2.2,1.2,4.3C31.7,23,31,23,30.2,23c-0.1,0-0.2,0-0.3,0c-1.2,0-2.5,0.1-3.9,0.3
	C26,21.3,26.4,19.7,27.2,18.9 M41.9,5.6c-0.8-0.8-1.8-1.2-2.8-1.2h0c-3.5,0-4.7,5.3-5.4,9.2c-0.2,1.2-0.3,2.3-0.4,3.5
	c-0.1-0.1-0.1-0.1-0.2-0.2c-1-1-2.4-1.5-4.1-1.5c-1.5,0-2.9,0.6-3.9,1.7c-0.3,0.3-0.5,0.7-0.8,1.1c-0.4-1.2-1.1-2.2-1.9-3
	c-1.3-1.2-2.9-1.7-4.6-1.5c-1.4,0.2-2.6,0.9-3.5,2.1c0,0,0,0,0,0C12.9,8.3,10.2-0.5,5.3,0C4.1,0.1,3,0.8,2.2,1.9
	c-3.8,5.1-2,20.3-0.4,28.4C2,31,2.6,31.4,3.2,31.4c0.1,0,0.2,0,0.3,0c0.7-0.1,1.2-0.8,1-1.6C1.8,16.1,2.4,6.2,4.4,3.5
	c0.5-0.6,0.9-0.8,1.2-0.8c2.7-0.3,6,9.1,7.4,20.9c0.1,1.5,0.3,2.8,0.5,3.9c0,0,0,0,0,0c-4,2.3-7.3,5.5-8.7,9.4
	c-1.6,4.8-0.3,9.8,3.4,13.7c3.7,3.9,9.1,6,14.7,6c2,0,4.1-0.3,6.1-0.8C44.3,51.6,45.6,39.3,45.6,26C45.6,14.5,44.4,8.1,41.9,5.6"/>
</svg>
